<?xml version="1.0" encoding="UTF-8" standalone="no"?>
<!DOCTYPE svg PUBLIC "-//W3C//DTD SVG 1.1//EN" "http://www.w3.org/Graphics/SVG/1.1/DTD/svg11.dtd">
<svg width="100%" height="100%" viewBox="0 0 512 512" version="1.1" xmlns="http://www.w3.org/2000/svg" xmlns:xlink="http://www.w3.org/1999/xlink" xml:space="preserve" xmlns:serif="http://www.serif.com/" style="fill-rule:evenodd;clip-rule:evenodd;stroke-linejoin:round;stroke-miterlimit:2;">
    <g transform="matrix(1.41183,0,0,1.41183,-142.551,-222.733)">
        <path d="M268.486,369.128C262,356 259,344 259,344C259,344 235,440 176,386C115.457,330.588 204,312 204,312C204,312 110.017,331.473 129,191C134.335,151.523 185.384,179.845 215,217C233.333,240 259,278 259,278C259,278 284.667,240 303,217C332.616,179.845 383.665,151.523 389,191C395.226,237.07 389.301,265.937 378.525,283.928L301.086,283.928C292.434,283.928 284.135,287.366 278.018,293.486C271.9,299.605 268.465,307.905 268.468,316.558L268.486,369.128Z" style="fill:rgb(32,139,254);"/>
    </g>
    <g transform="matrix(1.87054,0,0,1.87054,-143.148,-378.729)">
        <path d="M212.006,323.444C212.004,318.818 213.841,314.381 217.111,311.11C220.382,307.838 224.818,306 229.444,306L313.562,306C323.193,306 331,313.807 331,323.438C331,359.895 331,442.667 331,465.228C331,466.195 330.417,467.067 329.524,467.437C328.631,467.807 327.602,467.602 326.919,466.919C313.511,453.511 271.676,411.676 271.676,411.676C271.676,411.676 229.586,453.766 216.136,467.216C215.452,467.899 214.424,468.104 213.531,467.734C212.637,467.364 212.055,466.493 212.054,465.526C212.047,442.938 212.018,359.96 212.006,323.444Z" style="fill:rgb(32,139,254);"/>
    </g>
</svg>
